<svg xmlns="http://www.w3.org/2000/svg" viewBox="0 0 400 400">
  <defs>
    <style>
      @font-face {
        font-family: 'Urban';
        src: url('/Urban.ttf') format('truetype');
      }
      @font-face {
        font-family: 'Urban2';
        src: url('/Urban2.ttf') format('truetype');
      }
    </style>
  </defs>

  <!-- 50% Chromie Squiggle-inspired background -->
  <rect x="0" y="0" width="400" height="400" fill="#87CEEB" />
  <path d="M0 0 C50 100, 100 200, 150 0 C200 100, 250 200, 300 0 C350 100, 400 200, 450 0" stroke="#ADD8E6" stroke-width="10" fill="none" />
  <path d="-25 50 C25 150, 75 250, 125 50 C175 150, 225 250, 275 50 C325 150, 375 250, 425 50" stroke="#ADD8E6" stroke-width="10" fill="none" />
  <path d="-50 100 C0 200, 50 300, 100 100 C150 200, 200 300, 250 100 C300 200, 350 300, 400 100" stroke="#ADD8E6" stroke-width="10" fill="none" />
  <path d="-75 150 C-25 250, 25 350, 75 150 C125 250, 175 350, 225 150 C275 250, 325 350, 375 150" stroke="#ADD8E6" stroke-width="10" fill="none" />
  <path d="-100 200 C-50 300, 0 400, 50 200 C100 300, 150 400, 200 200 C250 300, 300 400, 350 200" stroke="#ADD8E6" stroke-width="10" fill="none" />
  <path d="-125 250 C-75 350, -25 450, 25 250 C75 350, 125 450, 175 250 C225 350, 275 450, 325 250" stroke="#ADD8E6" stroke-width="10" fill="none" />
  <path d="-150 300 C-100 400, -50 500, 0 300 C50 400, 100 500, 150 300 C200 400, 250 500, 300 300" stroke="#ADD8E6" stroke-width="10" fill="none" />
  <path d="-175 350 C-125 450, -75 550, -25 350 C25 450, 75 550, 125 350 C175 450, 225 550, 275 350" stroke="#ADD8E6" stroke-width="10" fill="none" />
  <path d="-200 400 C-150 500, -100 600, -50 400 C0 500, 50 600, 100 400 C150 500, 200 600, 250 400" stroke="#ADD8E6" stroke-width="10" fill="none" />
  <path d="-225 450 C-175 550, -125 650, -75 450 C-25 550, 25 650, 75 450 C125 550, 175 650, 225 450" stroke="#ADD8E6" stroke-width="10" fill="none" />

  <!-- 50% New background variations -->
  <path d="M0 0 C100 100, 200 200, 300 0 C400 100, 500 200, 600 0" stroke="#ADD8E6" stroke-width="10" fill="none" />
  <path d="-50 50 C50 150, 150 250, 250 50 C350 150, 450 250, 550 50" stroke="#ADD8E6" stroke-width="10" fill="none" />
  <path d="-100 100 C0 200, 100 300, 200 100 C300 200, 400 300, 500 100" stroke="#ADD8E6" stroke-width="10" fill="none" />

  <!-- Graffiti text with border -->
  <text x="50" y="200" font-family="Urban2" font-size="50" fill="#4169E1" stroke="#000000" stroke-width="2">
    STREET ART
  </text>
</svg>